<?xml version="1.0" encoding="UTF-8"?>
<!DOCTYPE svg PUBLIC "-//W3C//DTD SVG 1.1//EN" "http://www.w3.org/Graphics/SVG/1.1/DTD/svg11.dtd">
<!-- Creator: CorelDRAW X6 -->
<svg xmlns="http://www.w3.org/2000/svg" xml:space="preserve" width="61.976mm" height="26.924mm" version="1.1" shape-rendering="geometricPrecision" text-rendering="geometricPrecision" image-rendering="optimizeQuality" fill-rule="evenodd" clip-rule="evenodd"
viewBox="0 0 6198 2692"
 xmlns:xlink="http://www.w3.org/1999/xlink">
 <g id="Capa_x0020_1">
  <metadata id="CorelCorpID_0Corel-Layer"/>
  <rect fill="#373435" stroke="#373435" stroke-width="25" x="-1194" y="4114" width="7699" height="3344"/>
  <g id="_252294336">
   <path fill="#D55448" d="M8196 1634c298,5 2846,-84 2243,394 -124,98 -1011,362 -661,537 203,101 1548,24 1861,15 722,-21 1292,-67 2023,-54 22,-3 44,7 48,22 5,15 -10,30 -32,33 -822,-8 -1530,43 -2347,62 -321,8 -1413,95 -1628,-48 -321,-213 312,-425 470,-495 1119,-497 -1708,-406 -1983,-410 -23,-1 -40,-14 -38,-29 2,-15 21,-27 44,-26z"/>
  </g>
  <path fill="none" d="M8193 1661c369,17 2227,-54 2285,212 59,273 -1017,357 -778,672 128,169 934,78 1630,68 820,-11 1725,-85 1988,-68 5,0 342,7 352,6"/>
  <path fill="#896E69" fill-rule="nonzero" d="M10765 396c-26,37 -50,136 -72,296 -20,142 -29,253 -28,332 2,79 15,119 39,119 4,0 11,-2 19,-5 8,-3 15,-5 19,-5 8,0 12,3 12,9 0,4 -3,10 -9,15 -21,18 -52,38 -95,61 -10,5 -19,8 -27,8 -40,0 -55,-102 -43,-306 -99,6 -192,14 -279,24l-122 150c20,-3 28,-4 22,-4 20,0 35,20 46,61 3,10 4,17 4,22 0,10 -4,15 -13,15 -4,0 -10,-1 -18,-3 -8,-2 -14,-3 -19,-3 -35,0 -83,19 -142,56 -18,11 -27,17 -27,17 -3,0 -10,-3 -19,-9 -19,-13 -33,-29 -41,-48 -5,-13 2,-26 22,-38 26,-17 61,-44 105,-84 45,-39 74,-68 88,-85 -2,-37 -3,-57 -3,-59 1,-23 10,-39 26,-46 15,-6 41,-10 79,-12 102,-125 184,-247 245,-366 -20,11 -56,25 -108,41 -83,27 -141,47 -172,58 -45,16 -67,44 -67,84 0,8 0,17 1,27 1,15 -3,23 -13,23 -7,0 -12,-3 -15,-10 -22,-47 -35,-81 -39,-100 -4,-18 -6,-26 -6,-27 0,-15 7,-28 20,-40 25,-21 72,-37 141,-47 104,-16 193,-40 268,-74 9,-9 14,-14 15,-15 2,-3 4,-8 7,-17 2,-8 6,-12 12,-12 10,0 24,10 43,30 6,7 9,14 9,21 0,4 -7,18 -21,43 -31,54 -72,120 -123,197 -57,86 -102,147 -133,183 99,0 176,-3 232,-8 6,-58 18,-141 38,-248 10,-53 20,-105 30,-158 6,-45 36,-78 90,-98 8,-3 15,-5 21,-5 9,0 14,4 14,12 0,7 -4,17 -12,28z"/>
  <path id="1" fill="#896E69" fill-rule="nonzero" d="M11306 247c5,4 8,8 8,13 0,8 -5,12 -14,12 -4,0 -8,-1 -13,-4 -19,-10 -33,-14 -43,-14 -26,0 -55,25 -86,76 -112,183 -192,420 -240,709 -1,8 -3,18 -6,32 10,-10 24,-26 42,-48 11,-13 19,-19 24,-19 11,0 11,6 2,19 -40,57 -66,116 -79,178 -5,15 -10,23 -17,23 -3,0 -8,-2 -13,-6 -21,-14 -33,-22 -36,-25 -8,-8 -12,-19 -12,-32 0,-7 1,-15 3,-24 48,-263 110,-487 185,-672 57,-140 108,-230 153,-271 12,-12 25,-17 37,-17 11,0 26,7 44,21 20,17 40,33 61,50z"/>
  <path id="2" fill="#896E69" fill-rule="nonzero" d="M11804 1012c-27,40 -67,111 -121,212 -5,9 -8,14 -9,14 -4,2 -12,1 -26,-3 -29,-9 -43,-17 -43,-25 0,-5 2,-11 6,-20 31,-72 58,-149 80,-232 22,-82 33,-145 32,-189 0,-14 -5,-22 -15,-22 -7,0 -15,4 -25,12 -35,28 -81,84 -137,166 -67,99 -115,192 -142,278 -3,10 -6,15 -8,17 -2,1 -8,0 -18,-3 -14,-5 -28,-12 -40,-21 -6,-5 -10,-9 -10,-14 0,-1 3,-9 9,-24 54,-135 81,-267 81,-394 0,-13 -4,-19 -11,-19 -6,0 -12,4 -21,11 -44,37 -93,101 -147,192 -52,87 -91,168 -116,244 -7,19 -13,29 -20,29 -8,0 -25,-9 -51,-28 -7,-4 -10,-8 -10,-12 0,-4 5,-11 14,-21 17,-36 36,-98 58,-186 24,-101 35,-173 32,-219 -6,6 -17,16 -32,30 -15,14 -26,25 -33,32 -6,5 -10,8 -14,8 -6,0 -9,-4 -9,-12 0,-7 2,-12 7,-17 23,-24 46,-52 69,-85 8,-12 16,-17 22,-17 5,0 14,7 27,20 10,4 21,7 31,11 9,4 13,12 13,23 0,3 -1,7 -2,11 -10,80 -26,155 -47,224 73,-131 141,-225 204,-280 9,-8 17,-12 25,-12 9,0 22,6 40,17 17,7 28,14 33,20 6,7 9,19 9,35 0,84 -10,159 -29,225 81,-128 154,-222 221,-284 9,-8 18,-12 28,-12 12,0 28,8 46,25 32,5 48,25 46,59 -5,99 -26,196 -64,288 21,-24 37,-46 48,-63 5,-9 11,-13 18,-13 6,0 9,3 9,10 0,4 -2,9 -6,15z"/>
  <path id="3" fill="#896E69" fill-rule="nonzero" d="M12300 796c-38,105 -64,194 -78,265 6,-6 14,-15 25,-26 10,-12 16,-19 19,-21 6,-7 12,-11 18,-11 6,0 9,3 9,9 0,4 -2,8 -5,13 -39,57 -65,115 -77,174 -4,17 -9,25 -17,25 -7,0 -20,-7 -39,-20 -11,-7 -18,-14 -19,-19 -2,-4 -2,-14 0,-27 17,-105 39,-192 65,-262 -36,58 -85,123 -147,193 -54,62 -93,101 -117,118 -18,12 -31,18 -40,18 -7,0 -19,-6 -34,-18 -22,-13 -33,-31 -33,-54 0,-5 0,-10 1,-16 7,-61 34,-132 80,-213 46,-81 99,-150 159,-205 19,-18 37,-27 52,-27 15,1 43,21 85,59 4,3 6,7 6,11 0,7 -4,10 -13,10 -3,0 -6,-1 -9,-2 -29,-12 -53,-12 -71,1 -39,29 -82,79 -129,151 -55,83 -87,157 -99,223 0,3 -1,6 -1,8 0,10 4,15 12,15 14,0 31,-10 50,-29 46,-45 96,-102 149,-170 54,-71 89,-124 104,-160 11,-26 18,-45 22,-56 6,-19 11,-28 17,-28 6,0 21,8 44,26 10,7 15,13 15,19 1,5 -1,14 -6,26z"/>
  <path id="4" fill="#896E69" fill-rule="nonzero" d="M13023 796c-38,105 -64,194 -78,265 6,-6 14,-15 25,-26 10,-12 16,-19 19,-21 6,-7 12,-11 18,-11 6,0 9,3 9,9 0,4 -2,8 -5,13 -39,57 -65,115 -77,174 -4,17 -9,25 -17,25 -7,0 -20,-7 -39,-20 -11,-7 -18,-14 -19,-19 -2,-4 -2,-14 0,-27 17,-105 39,-192 65,-262 -36,58 -85,123 -147,193 -54,62 -93,101 -117,118 -18,12 -31,18 -40,18 -7,0 -19,-6 -34,-18 -22,-13 -33,-31 -33,-54 0,-5 0,-10 1,-16 7,-61 34,-132 80,-213 46,-81 99,-150 159,-205 19,-18 37,-27 52,-27 15,1 43,21 85,59 4,3 6,7 6,11 0,7 -4,10 -13,10 -3,0 -6,-1 -9,-2 -29,-12 -53,-12 -71,1 -39,29 -82,79 -129,151 -55,83 -87,157 -99,223 0,3 -1,6 -1,8 0,10 4,15 12,15 14,0 31,-10 50,-29 46,-45 96,-102 149,-170 54,-71 89,-124 104,-160 11,-26 18,-45 22,-56 6,-19 11,-28 17,-28 6,0 21,8 44,26 10,7 15,13 15,19 1,5 -1,14 -6,26z"/>
  <path id="5" fill="#896E69" fill-rule="nonzero" d="M11021 1949c0,64 -9,116 -27,155 -8,16 -19,20 -35,11 -23,-13 -35,-23 -35,-32 0,-4 3,-8 8,-12 14,-40 21,-71 20,-93 -1,-19 -10,-28 -28,-28 -2,0 -5,-1 -9,-2 -4,-1 -7,-1 -10,-1 -14,0 -32,14 -53,41 -23,31 -45,73 -66,128 -17,45 -29,84 -35,116 -4,23 -7,44 -7,63 0,63 20,94 60,93 35,-1 86,-45 154,-133 7,-8 13,-12 18,-12 5,0 8,3 8,10 0,3 -1,7 -3,12 -22,54 -51,101 -86,142 -9,10 -24,15 -46,15 -13,0 -29,-3 -48,-8 -38,-3 -68,-15 -91,-37 -24,-23 -36,-54 -34,-92 2,-44 17,-105 46,-182 31,-84 64,-145 97,-184 16,-17 29,-26 40,-26 11,0 32,9 63,27 17,-6 34,-9 50,-9 33,0 49,12 49,35z"/>
  <path id="6" fill="#896E69" fill-rule="nonzero" d="M11450 1939c0,54 -7,106 -22,155 -4,15 -11,22 -19,22 -6,0 -19,-8 -39,-25 -10,-8 -12,-20 -7,-35 12,-38 18,-68 18,-91 0,-8 -2,-12 -5,-12 -5,0 -13,7 -24,22 -86,112 -151,238 -193,377 -14,44 -25,66 -35,66 -4,0 -20,-7 -49,-22 -14,-7 -19,-21 -14,-41 33,-143 68,-264 105,-363 -31,32 -50,54 -58,66 -3,5 -8,7 -14,7 -7,0 -11,-3 -11,-9 0,-4 2,-8 5,-12 20,-24 47,-61 81,-111 10,-18 21,-27 31,-27 7,0 22,6 45,17 13,7 15,15 6,27 -9,12 -26,54 -51,127 -24,71 -41,126 -50,166 57,-125 121,-236 192,-332 14,-18 25,-27 33,-27 7,0 18,5 30,15 18,2 28,5 33,8 7,5 11,15 11,30z"/>
  <path id="7" fill="#896E69" fill-rule="nonzero" d="M11854 2013c-1,37 -10,86 -27,146 -27,96 -65,170 -114,224 -26,28 -55,42 -87,42 -12,0 -28,-3 -48,-8 -39,-3 -70,-15 -95,-37 -26,-24 -39,-55 -37,-92 2,-44 17,-105 45,-183 31,-86 64,-147 98,-185 16,-18 29,-27 40,-27 14,0 37,14 68,43 9,-4 26,-12 53,-23 14,-5 24,-7 31,-7 16,0 34,15 54,45 13,19 19,39 18,62zm-72 18c3,-28 4,-45 4,-53 0,-17 -5,-26 -16,-26 -4,0 -10,1 -16,3l-96 39c-11,4 -18,7 -19,7 -3,0 -7,-4 -10,-12 -24,29 -46,72 -67,127 -16,43 -27,82 -33,117 -4,23 -7,44 -7,63 0,64 20,95 59,93 16,0 33,-7 51,-19 35,-23 67,-71 97,-141 29,-67 47,-133 53,-198z"/>
  <path id="8" fill="#896E69" fill-rule="nonzero" d="M12235 1949c0,64 -9,116 -27,155 -8,16 -19,20 -35,11 -23,-13 -35,-23 -35,-32 0,-4 3,-8 8,-12 14,-40 21,-71 20,-93 -1,-19 -10,-28 -28,-28 -2,0 -5,-1 -9,-2 -4,-1 -7,-1 -10,-1 -14,0 -32,14 -53,41 -23,31 -45,73 -66,128 -17,45 -29,84 -35,116 -4,23 -7,44 -7,63 0,63 20,94 60,93 35,-1 86,-45 154,-133 7,-8 13,-12 18,-12 5,0 8,3 8,10 0,3 -1,7 -3,12 -22,54 -51,101 -86,142 -9,10 -24,15 -46,15 -13,0 -29,-3 -48,-8 -38,-3 -68,-15 -91,-37 -24,-23 -36,-54 -34,-92 2,-44 17,-105 46,-182 31,-84 64,-145 97,-184 16,-17 29,-26 40,-26 11,0 32,9 63,27 17,-6 34,-9 50,-9 33,0 49,12 49,35z"/>
  <path id="9" fill="#896E69" fill-rule="nonzero" d="M12767 1444c5,4 8,9 8,14 0,7 -5,11 -14,11 -4,0 -9,-1 -13,-4 -19,-10 -33,-14 -43,-14 -25,0 -54,25 -84,76 -109,178 -190,410 -243,698 67,-130 145,-233 231,-311 19,-17 32,-25 41,-25 3,0 13,6 31,17 22,9 34,15 37,17 11,10 16,26 16,50 0,7 0,14 -1,22 -7,74 -28,163 -63,268 13,-17 33,-43 61,-76 7,-7 12,-11 17,-11 4,0 7,3 7,8 0,6 -3,13 -8,21 -24,35 -56,86 -96,153 -3,7 -11,24 -24,52 -6,13 -13,20 -22,20 -11,0 -26,-7 -47,-22 -8,-6 -10,-15 -4,-27 71,-179 109,-312 113,-401 1,-25 -2,-38 -11,-38 -5,0 -17,7 -34,21 -32,26 -71,71 -117,137 -61,86 -109,174 -142,264 -9,26 -18,39 -25,39 -7,0 -21,-8 -42,-25 -10,-9 -14,-23 -11,-43 48,-262 110,-486 188,-672 57,-138 109,-229 155,-271 12,-11 23,-16 34,-16 12,0 26,7 44,20 21,17 41,34 62,51z"/>
  <path id="10" fill="#896E69" fill-rule="nonzero" d="M13126 2229c-101,129 -171,193 -213,193 -19,0 -44,-14 -74,-40 -31,-15 -47,-34 -47,-58 0,-5 0,-9 1,-14 7,-57 23,-120 46,-188 -15,-8 -23,-15 -23,-22 0,-6 4,-9 13,-9 7,0 14,2 21,6 37,-82 70,-141 99,-176 19,-23 36,-35 51,-35 7,0 24,6 52,18 -2,-12 1,-20 11,-22 0,0 10,0 29,0 18,0 27,3 27,9 0,1 -1,5 -2,11 -1,6 -2,11 -2,16 0,15 0,33 1,55 0,22 1,37 1,44 0,51 -14,87 -42,107 -26,19 -55,28 -87,28 -17,0 -45,-5 -84,-14 -7,13 -15,38 -23,75 -12,47 -17,89 -16,125 0,21 7,32 21,32 5,0 11,-1 19,-4 48,-17 115,-68 200,-155 6,-5 11,-8 16,-8 8,0 12,4 12,11 0,4 -2,9 -6,14zm-73 -274c0,-16 -4,-24 -11,-24 -4,0 -11,3 -20,10 -41,33 -76,90 -107,172 8,1 23,3 43,4 33,1 58,-6 75,-23 12,-12 19,-33 20,-61 -1,21 -1,-5 -1,-77z"/>
  <path id="11" fill="#896E69" fill-rule="nonzero" d="M13525 1614c12,6 17,13 17,21 0,5 -4,8 -12,8 -1,0 -4,0 -8,-1 -4,0 -6,-1 -8,-1 -16,0 -35,17 -57,51 -20,31 -47,97 -82,200 -3,9 -4,15 -4,16 1,3 7,4 16,5 24,2 57,1 98,-2 14,-1 21,5 21,18 0,9 -5,15 -16,17 -9,1 -54,5 -137,11 -50,145 -80,268 -90,368 0,5 -1,10 -1,14 0,14 4,21 11,21 11,0 45,-27 101,-81 7,-7 13,-10 19,-10 5,0 8,2 10,7 1,5 -1,11 -6,17 -33,44 -66,82 -98,113 -14,13 -25,19 -34,19 -9,0 -23,-7 -42,-22 -24,-6 -35,-19 -35,-37 0,-3 0,-6 1,-10 15,-107 45,-238 90,-393 -22,-3 -41,-6 -59,-9 -8,-1 -12,-6 -12,-15 0,-10 4,-15 12,-18 8,-2 24,-7 46,-14 14,-4 27,-11 40,-19 44,-137 79,-226 104,-266 14,-23 30,-35 46,-35 16,0 39,8 69,25z"/>
  <path fill="#896E69" d="M9229 484c314,-249 405,-354 273,-314 -110,29 -119,7 -30,-65 119,-96 205,-136 257,-118 4,1 8,3 12,5 23,74 -117,259 -419,555 -57,-38 -89,-59 -93,-63z"/>
  <path fill="#896E69" d="M7856 2019l-333 340c-12,26 -9,50 11,71 24,20 49,22 76,6l330 -343 68 -71c-7,-6 -13,-12 -19,-19 -10,-8 -21,-20 -31,-32 -7,-7 -13,-14 -19,-20 -2,-2 -5,-5 -7,-8l-75 75z"/>
  <path fill="#FEFEFE" d="M7680 690l1 2c0,5 -23,43 -26,48l-27 54c-31,67 -53,139 -71,212 -2,8 -7,24 -8,32 0,5 0,7 -1,15 -1,5 -2,13 -3,18 -6,38 -9,72 -11,110l-2 37c0,50 2,103 9,153 15,110 37,182 79,285l27 54c-4,11 0,-6 -4,5 7,5 57,91 65,103 22,33 46,66 72,96l118 120 55 44c152,114 333,189 523,207l105 7 27 0c42,-1 97,-6 132,-11 31,-4 64,-11 95,-18 30,-7 59,-16 87,-25 144,-48 201,-90 314,-163l8 -8c2,-5 13,-12 17,-16l45 -39c10,-9 18,-19 28,-28l28 -28c18,-18 36,-39 52,-60 16,-20 42,-51 54,-73 2,-3 3,-5 5,-9 4,-6 7,-11 11,-17 44,-72 81,-148 108,-228 5,-15 9,-28 13,-43l21 -80c5,-8 4,-20 6,-31l12 -114c0,-8 1,-6 2,-14 4,-72 -2,-147 -10,-211 -15,-105 -48,-205 -92,-301 -12,-26 -26,-49 -39,-73 -13,-24 -28,-46 -43,-69l-48 -64c-4,-5 -9,-10 -13,-15 -3,-3 -4,-4 -6,-8 -25,-30 -52,-61 -83,-86l-29 -27c-33,-28 -67,-55 -104,-79 -46,-30 -93,-59 -143,-81l-79 -33c-7,-3 -14,-5 -21,-7 -8,-3 -13,-5 -22,-8 -59,-17 -117,-32 -184,-41 -24,-3 -51,-7 -77,-8 -11,0 -18,0 -27,-1 -1,0 -2,0 -3,0l-66 0c-51,3 -111,9 -142,14 -31,5 -106,19 -137,32 -7,3 -14,4 -21,7 -7,2 -14,4 -21,7l-80 32c-49,20 -101,50 -145,79 -34,22 -65,46 -97,71l-30 26c-3,3 -4,5 -7,7l-50 48c-5,5 -10,9 -14,14l-111 142c-6,9 -21,25 -24,34z"/>
  <path fill="#D55448" d="M8114 2006l2 126c40,21 104,52 151,64 -8,-334 22,-623 127,-937 49,-145 122,-305 203,-431 10,-16 20,-32 31,-48 35,-52 61,-88 99,-138l137 -158 70 -69c7,-7 14,-12 21,-19 7,-8 14,-11 20,-18l64 -57c-32,-15 -118,-54 -150,-58 -2,4 -35,31 -41,36 -4,3 -6,6 -10,9l-112 106c-7,7 -13,12 -20,19 -7,7 -12,13 -18,20l-47 51c-4,4 -5,6 -9,11 -6,6 -13,15 -19,22 -84,99 -161,208 -225,326 -103,188 -166,362 -214,574 -40,179 -60,379 -60,570z"/>
  <path fill="#D55448" d="M8306 2078l2 132c49,12 97,25 150,31 -3,-315 25,-591 122,-886 27,-82 65,-174 99,-250 5,-12 9,-15 14,-25 9,-17 17,-34 26,-51 19,-35 36,-66 57,-100 40,-66 81,-128 126,-185 71,-91 104,-127 181,-207 22,-23 64,-62 89,-84l20 -18c6,-6 7,-5 11,-10 -20,-18 -64,-46 -90,-61 -8,-5 -25,-16 -33,-18 -11,7 -48,41 -63,53l-41 38c-7,6 -12,13 -19,19l-116 119c-124,144 -225,283 -314,471 -143,302 -219,652 -219,1034z"/>
  <path fill="#D55448" d="M7922 1937l0 62 73 57c13,10 64,44 78,51 -3,-237 7,-429 59,-676 27,-125 64,-245 111,-362 22,-56 47,-109 73,-162 102,-203 256,-412 421,-564l51 -47c4,-4 6,-7 11,-10l42 -37c-20,-10 -159,-31 -185,-28 -6,8 -11,10 -19,18 -13,13 -49,43 -61,55l-66 67c-145,144 -298,367 -382,557 -69,158 -114,288 -151,462 -37,176 -56,368 -55,558z"/>
  <path fill="#D55448" d="M9001 686l52 60c121,145 229,309 314,481 51,103 97,210 137,318 4,12 8,22 12,33 2,6 8,28 13,32 8,-3 12,-20 16,-33 23,-63 40,-132 50,-199 2,-16 -4,-25 -10,-38 -5,-12 -10,-24 -15,-36 -74,-176 -139,-302 -239,-458 -53,-82 -129,-181 -194,-255l-25 -26c-14,8 -109,114 -112,121z"/>
  <path fill="#D55448" d="M8873 855c21,17 127,157 139,174 79,114 114,171 180,293 33,61 74,150 102,214 16,37 31,75 45,112 21,-2 108,-19 137,-26 5,-1 6,-1 9,-3 -9,-39 -84,-221 -100,-254 -61,-129 -106,-223 -184,-344 -49,-77 -144,-211 -207,-277l-21 -25c-8,4 -21,23 -27,31 -14,17 -72,93 -75,105z"/>
  <path fill="#D55448" d="M8537 1698c-9,52 -19,110 -22,163 114,15 162,25 285,30 191,7 395,-11 581,-48 10,-2 25,-3 30,-9 3,-3 5,-7 8,-11 3,-4 6,-8 9,-12 10,-16 21,-31 31,-48 12,-20 49,-83 55,-104 -35,5 -75,16 -111,23 -244,46 -500,63 -747,33 -15,-2 -113,-17 -117,-16z"/>
  <path fill="#D55448" d="M8511 1903c-4,49 -12,116 -10,164 22,11 210,26 248,28 132,6 263,1 394,-14 21,-2 68,-42 84,-55l28 -23c5,-4 5,-5 9,-8l36 -34c13,-15 19,-17 34,-35 5,-6 12,-12 17,-18 5,-7 11,-12 16,-19l-99 16c-169,26 -379,39 -549,23 -56,-5 -101,-9 -156,-17 -15,-2 -38,-7 -51,-8z"/>
  <path fill="#D55448" d="M7620 932c29,-19 56,-40 87,-60 66,-43 116,-72 186,-110 32,-17 66,-32 100,-49 59,-29 148,-63 211,-86 63,-23 39,-3 83,-66l47 -63c5,-6 14,-16 16,-22 -8,-7 -38,-23 -50,-29 -8,-4 -16,-12 -25,-10 -55,13 -212,68 -266,90 -72,29 -175,76 -242,114 -23,13 -94,151 -104,175 -14,34 -35,79 -44,116z"/>
  <path fill="#D55448" d="M7575 1202c5,5 12,10 19,15 8,-5 13,-10 20,-16l61 -50c121,-93 216,-156 356,-228 16,-8 33,-17 50,-24 18,-8 14,-8 31,-43 32,-67 56,-106 91,-166 4,-8 10,-15 14,-23 -18,5 -86,32 -106,40 -175,72 -344,165 -492,280 -3,2 -6,5 -10,8 -6,4 -5,2 -8,12 -14,62 -23,131 -25,195z"/>
  <path fill="#D55448" d="M8653 1672c33,4 126,14 155,13 42,-214 58,-458 36,-675 -3,-27 -5,-69 -12,-94 -15,19 -73,125 -85,147 -14,26 -25,53 -39,79 -26,52 -19,39 -19,98 0,107 -8,224 -23,331 -2,16 -16,94 -14,102z"/>
  <path fill="#D55448" d="M8851 1686l158 0 18 -106c19,-116 27,-224 32,-343 3,-67 7,-53 -23,-99 -16,-25 -34,-50 -51,-74l-108 -140c0,27 7,64 10,92 9,100 11,201 6,301 -4,92 -14,190 -28,281 -4,26 -14,65 -15,89z"/>
  <path fill="#D55448" d="M9143 533c4,7 11,15 17,21 19,19 100,120 119,144 43,57 82,115 122,178 73,115 125,222 181,346 7,16 15,38 23,52 11,-60 -10,-209 -25,-272 -43,-185 -149,-374 -284,-499 -14,-13 -45,-44 -59,-53 -18,12 -80,74 -93,83z"/>
  <path fill="#D55448" d="M7628 1242c3,7 9,10 15,14 6,5 11,8 17,13l70 50c9,6 26,19 35,23 48,-41 144,-109 200,-144 5,-3 8,-5 13,-8 7,-5 13,-32 18,-47l45 -127c7,-19 20,-45 25,-63 -43,14 -220,124 -257,151 -9,7 -17,12 -27,19 -18,13 -36,25 -53,39l-101 81z"/>
  <path fill="#D55448" d="M7894 1642c5,-25 6,-55 10,-81 4,-27 9,-55 12,-81 -14,-6 -32,-16 -45,-25 -102,-62 -156,-94 -254,-169 -6,-5 -13,-10 -20,-15 -6,-5 -14,-11 -21,-15 1,61 8,118 19,177 4,18 2,14 18,26l65 48c33,24 69,49 105,70 18,11 36,22 55,33 18,11 38,23 57,32z"/>
  <path fill="#D55448" d="M8498 2174l1 71 92 5c114,5 267,-30 373,-71 18,-7 34,-15 52,-22l47 -23c3,-2 2,-1 3,-2 -28,0 -66,4 -94,6 -115,8 -285,0 -390,-14 -26,-3 -56,-9 -82,-11l-1 63z"/>
  <path fill="#D55448" d="M9052 1683c54,-2 107,-9 160,-14 9,-41 16,-83 23,-125 5,-34 6,-29 -8,-58 -8,-17 -16,-33 -23,-50 -12,-26 -90,-181 -103,-192 -2,113 -13,223 -31,333 -5,35 -14,71 -18,105z"/>
  <path fill="#D55448" d="M7881 1856l9 -167 -71 -40c-70,-43 -104,-65 -170,-110 -11,-7 -23,-17 -34,-23 12,63 69,182 103,239 8,13 7,12 20,19 34,21 110,68 144,84z"/>
  <path fill="#D55448" d="M8144 322c6,4 22,10 29,13 38,17 116,56 150,75 10,6 18,10 28,16 9,5 21,13 30,16 5,-9 68,-80 79,-90 5,-5 24,-25 27,-31l-120 -63c-25,-12 -18,-13 -46,-5 -36,10 -151,48 -176,67z"/>
  <path fill="#D55448" d="M7828 563l94 -43c87,-39 215,-87 305,-111 -10,-9 -95,-46 -114,-54 -21,-9 -13,-11 -56,16 -17,10 -36,22 -51,33 -17,13 -32,23 -48,36 -29,23 -84,72 -109,101 -4,5 -5,6 -10,11 -4,4 -6,8 -10,12z"/>
  <path fill="#D55448" d="M8546 1655c7,4 53,10 65,11 15,-105 41,-270 37,-375 -18,27 -71,224 -81,267 -6,25 -19,73 -20,97z"/>
  <path fill="#D55448" d="M7802 1365c2,4 0,1 3,3l26 16c23,15 69,42 91,52 4,-6 17,-79 20,-94 7,-31 17,-64 23,-94 -15,7 -66,44 -83,56 -14,9 -26,19 -39,29l-40 30z"/>
  <path fill="#D55448" d="M8410 234l53 28c12,6 46,28 56,30 10,-15 25,-26 38,-38l38 -36c-48,-3 -140,5 -185,16z"/>
  <path fill="#D55448" d="M7879 1958l0 -55c-29,-13 -77,-44 -95,-52 4,8 16,21 22,28 8,10 16,20 23,28 16,16 33,39 50,51z"/>
  <path fill="#FFA577" d="M9256 1662l42 -6 -20 -50c-3,-7 -4,-13 -9,-17l-13 73z"/>
  <polygon fill="#D55448" points="7680,690 7678,690 7679,692 "/>
  <path fill="#FEFEFE" d="M9717 2252l0 -1c1,-2 19,-15 22,-17l23 -19c28,-24 53,-53 75,-82 3,-3 8,-9 10,-13 1,-2 1,-3 4,-7 2,-2 4,-5 5,-8 11,-16 19,-31 27,-48l8 -16c10,-23 20,-47 27,-71 15,-53 20,-91 22,-146l-1 -30c4,-4 -1,3 3,-2 -2,-4 -7,-53 -9,-60 -3,-20 -8,-40 -13,-59l-29 -79 -16 -31c-46,-83 -113,-154 -196,-201l-46 -25 -12 -5c-19,-8 -45,-17 -62,-22 -15,-5 -31,-8 -47,-11 -15,-3 -30,-5 -45,-6 -75,-8 -110,0 -176,10l-5 2c-2,2 -8,3 -11,4l-29 8c-6,2 -12,5 -19,7l-18 7c-12,5 -24,11 -36,17 -11,6 -30,15 -39,22 -1,1 -2,2 -4,3 -3,2 -6,3 -9,5 -35,24 -67,51 -96,82 -5,6 -10,11 -15,17l-26 32c-4,3 -6,8 -9,13l-29 50c-2,3 -2,3 -4,6 -16,32 -29,67 -38,98 -15,51 -20,103 -20,156 0,14 2,27 3,41 1,14 3,27 6,40l9 39c1,3 2,6 3,10 0,2 1,3 1,5 5,19 11,38 20,56l8 18c9,20 20,39 31,57 15,23 30,46 49,66l29 31c3,3 5,5 8,8 3,3 5,5 8,8 23,20 47,39 75,56 10,6 22,14 33,19 5,2 8,4 12,6 0,0 1,0 1,1l30 13c24,9 52,19 67,23 15,4 52,13 69,13 4,0 7,1 11,1 4,0 7,1 11,1l43 2c26,1 56,-2 82,-6 20,-3 39,-8 59,-13l19 -6c2,-1 3,-1 5,-2l33 -12c3,-1 6,-2 9,-4l79 -42c5,-3 15,-7 18,-11z"/>
  <path fill="#FFA577" d="M9788 1563l25 -58c-14,-18 -37,-45 -55,-60 -65,154 -137,280 -249,401 -52,56 -118,114 -180,155 -8,5 -16,10 -24,16 -26,17 -46,28 -73,42l-94 44 -46 17c-5,2 -9,2 -14,5 -5,2 -9,2 -13,4l-41 13c11,13 43,49 56,57 2,-1 23,-7 26,-8 3,-1 4,-1 6,-2l73 -25c4,-2 9,-3 13,-5 4,-2 8,-4 13,-5l32 -14c3,-1 3,-2 6,-3 4,-2 9,-4 13,-6 58,-28 116,-62 169,-103 85,-65 149,-131 214,-218 55,-74 104,-161 143,-248z"/>
  <path fill="#FFA577" d="M9715 1491l26 -60c-20,-16 -39,-31 -62,-45 -63,144 -132,265 -236,379 -29,32 -65,66 -96,94 -5,4 -7,5 -11,9 -7,6 -15,12 -22,18 -16,12 -30,23 -46,34 -32,22 -63,42 -95,59 -51,27 -73,37 -124,58 -15,6 -42,15 -58,20l-13 4c-4,1 -4,1 -7,3 6,12 20,34 28,46 3,4 8,12 11,15 7,-1 30,-9 40,-11l26 -9c5,-1 8,-3 13,-5l77 -31c86,-40 160,-83 239,-151 127,-109 233,-253 311,-427z"/>
  <path fill="#FFA577" d="M9861 1633l12 -28 -21 -41c-4,-7 -20,-33 -25,-39 -47,109 -91,194 -165,296 -38,52 -79,99 -124,142 -21,21 -43,40 -66,59 -88,72 -201,135 -306,171l-33 11c-3,1 -4,2 -7,2l-26 8c7,9 66,47 78,51 4,-2 7,-2 12,-4 9,-3 31,-9 39,-13l44 -17c95,-36 210,-107 287,-176 64,-58 111,-108 163,-180 53,-73 100,-156 139,-243z"/>
  <path fill="#FFA577" d="M9115 1983l-11 -38c-26,-91 -41,-188 -45,-284 -2,-57 -2,-115 3,-173 0,-6 1,-12 1,-18 0,-3 2,-15 1,-17 -4,0 -9,7 -14,12 -23,24 -45,52 -63,81 -4,7 -3,12 -4,19 0,7 -1,13 -1,20 -2,95 2,166 15,258 7,48 22,109 36,156l6 17c8,-1 73,-30 76,-32z"/>
  <path fill="#FFA577" d="M9208 1932c-6,-12 -26,-97 -28,-108 -13,-68 -17,-101 -22,-171 -3,-34 -3,-83 -2,-119 0,-20 1,-40 2,-60 -10,-3 -53,-13 -68,-16 -2,0 -3,-1 -5,0 -4,20 -7,118 -6,136 1,71 3,124 13,195 7,45 22,126 38,169l4 16c4,0 14,-6 19,-9 10,-5 52,-28 55,-32z"/>
  <path fill="#FFA577" d="M9532 1617c15,-22 31,-47 43,-70 -49,-30 -69,-45 -123,-72 -85,-42 -182,-76 -274,-97 -5,-1 -12,-4 -15,-2 -2,1 -4,2 -6,4 -2,1 -4,2 -6,4 -8,5 -16,10 -24,16 -10,7 -39,28 -46,36 17,5 37,8 55,12 120,29 240,74 346,138 6,4 48,31 50,31z"/>
  <path fill="#FFA577" d="M9586 1529c12,-22 29,-50 38,-73 -8,-10 -90,-55 -107,-63 -59,-30 -120,-54 -182,-74 -10,-3 -39,5 -49,8l-17 5c-3,1 -3,1 -6,2l-23 8c-9,4 -12,4 -22,9 -4,2 -8,3 -11,5 -4,2 -7,3 -11,5l48 13c82,23 180,60 255,102 25,14 44,25 68,40 6,4 16,11 22,14z"/>
  <path fill="#FFA577" d="M9793 2154c-17,3 -34,7 -52,10 -39,6 -68,9 -107,12 -18,1 -37,1 -55,2 -33,1 -80,-2 -113,-4 -33,-2 -18,-7 -51,13l-34 19c-3,2 -9,4 -12,7 2,5 13,18 17,23 3,4 5,9 10,10 28,6 110,12 139,13 39,1 95,1 133,-3 13,-1 74,-50 83,-58 13,-12 32,-29 43,-44z"/>
  <path fill="#FFA577" d="M9869 2040c-1,-3 -3,-7 -5,-11 -5,1 -8,2 -12,3l-38 10c-74,18 -130,27 -209,31 -9,0 -19,1 -28,1 -10,0 -8,1 -23,13 -28,24 -47,37 -75,57 -4,3 -8,5 -11,8 9,2 46,3 56,3 94,3 190,-5 281,-27 2,0 4,-1 6,-1 4,-1 3,0 6,-4 19,-26 37,-55 51,-84z"/>
  <path fill="#FFA577" d="M9474 1605c-14,-9 -54,-32 -68,-37 -63,89 -120,197 -154,301 -4,13 -12,32 -14,45 11,-5 59,-42 69,-50 12,-9 22,-19 34,-28 22,-18 17,-14 29,-41 22,-49 49,-101 78,-146 4,-7 26,-40 27,-44z"/>
  <path fill="#FFA577" d="M9387 1558l-72 -32 -30 44c-32,49 -58,97 -84,150 -15,30 -14,23 -10,50 2,15 5,30 8,44l21 86c5,-12 10,-31 14,-44 16,-47 36,-94 58,-138 20,-41 45,-84 70,-123 7,-11 19,-27 25,-38z"/>
  <path fill="#FFA577" d="M9019 2024c0,-4 -2,-9 -4,-13 -5,-12 -21,-75 -25,-90 -8,-35 -14,-69 -19,-106 -10,-68 -11,-127 -12,-195 0,-9 1,-20 0,-28 -17,25 -38,97 -44,129 -18,93 -9,201 28,286 4,9 12,29 16,36 11,-2 52,-17 59,-19z"/>
  <path fill="#FFA577" d="M9853 2010c0,-4 -2,-6 -4,-9 -2,-3 -3,-6 -5,-9l-21 -37c-3,-5 -8,-14 -11,-18 -30,9 -88,20 -120,25 -3,0 -5,0 -8,1 -4,1 -12,12 -18,18l-46 49c-7,7 -19,17 -24,24 23,2 125,-12 148,-16 6,-1 10,-2 16,-3 11,-2 21,-4 32,-7l63 -16z"/>
  <path fill="#FFA577" d="M9813 1774c-7,10 -14,24 -21,35 -7,11 -15,23 -22,35 5,5 11,14 16,20 34,49 52,75 81,129 2,4 4,7 6,11 2,3 4,8 6,11 12,-28 20,-56 27,-85 2,-9 2,-7 -3,-15l-20 -35c-10,-18 -22,-36 -34,-54 -6,-9 -12,-18 -18,-26 -6,-9 -13,-18 -19,-26z"/>
  <path fill="#FFA577" d="M9647 1407l14 -32 -41 -21c-51,-26 -128,-41 -184,-44 -10,0 -19,0 -28,-1l-26 1c-2,0 -1,0 -2,0 13,6 31,12 44,17 54,20 129,58 175,86 11,7 24,16 35,22l13 -29z"/>
  <path fill="#FFA577" d="M9295 1518c-25,-10 -51,-18 -76,-26 -13,17 -24,34 -36,52 -9,14 -9,12 -8,28 0,9 0,18 0,28 0,14 4,101 8,108 24,-51 52,-99 82,-146 10,-15 21,-30 30,-44z"/>
  <path fill="#FFA577" d="M9863 1679l-38 75 24 33c23,34 34,51 55,85 3,6 7,13 11,18 8,-31 6,-97 2,-130 -1,-8 -1,-7 -5,-13 -11,-17 -36,-54 -48,-68z"/>
  <path fill="#FFA577" d="M9430 2325c-2,-3 -8,-9 -11,-12 -14,-15 -42,-49 -53,-65 -3,-5 -6,-8 -9,-13 -3,-4 -7,-10 -10,-14 -4,3 -47,22 -54,25 -3,1 -16,6 -19,8l42 53c9,11 6,9 20,12 18,3 78,9 94,5z"/>
  <path fill="#FFA577" d="M9623 2280l-52 1c-47,0 -115,-4 -161,-11 3,6 34,40 41,48 8,8 4,8 29,4 10,-1 21,-3 30,-5 10,-2 19,-4 29,-7 18,-5 53,-16 70,-24 3,-1 3,-1 7,-3 3,-1 4,-2 7,-3z"/>
  <path fill="#FFA577" d="M9520 1634c-3,-3 -22,-15 -27,-18 -28,45 -74,115 -93,163 13,-9 78,-87 91,-105 8,-10 24,-30 29,-40z"/>
  <path fill="#FFA577" d="M9799 1919c0,-2 0,0 -1,-2l-9 -13c-8,-11 -23,-33 -31,-43 -3,2 -24,33 -28,39 -10,13 -21,26 -29,38 8,0 39,-7 49,-9 8,-2 16,-3 24,-5l24 -6z"/>
  <path fill="#FFA577" d="M9291 2310l-18 -24c-4,-5 -15,-22 -19,-25 -8,5 -17,7 -25,9l-25 9c21,11 65,26 88,31z"/>
  <path fill="#FFA577" d="M9884 1632l-11 25c10,12 26,36 33,43 0,-4 -3,-13 -4,-17 -2,-6 -3,-12 -5,-17 -4,-11 -7,-25 -12,-34z"/>
  <path fill="#FFA577" d="M9198 1486l-20 -6 -1 27c0,4 -1,7 1,10l21 -31z"/>
  <polygon fill="#FFA577" points="9717,2252 9717,2252 9717,2251 "/>
  <path fill="#78A5A3" d="M9362 509c275,-273 402,-445 380,-516 -4,-2 -8,-4 -12,-5 -53,-17 -138,22 -257,118 -90,72 -80,94 30,65 124,-37 52,52 -215,267l25 23c17,14 34,31 49,48z"/>
  <path fill="#78A5A3" d="M7953 2078l-55 -44 -29 -29 -14 14 -333 340c-12,26 -9,50 11,71 24,20 49,22 76,6l330 -343 14 -15c0,0 0,0 -1,0z"/>
  <path fill="#FEFEFE" fill-rule="nonzero" d="M3251 413c-26,37 -50,136 -72,296 -20,142 -29,253 -28,332 2,79 15,119 39,119 4,0 11,-2 19,-5 8,-3 15,-5 19,-5 8,0 12,3 12,9 0,4 -3,10 -9,15 -21,18 -52,38 -95,61 -10,5 -19,8 -27,8 -40,0 -55,-102 -43,-306 -99,6 -192,14 -279,24l-122 150c20,-3 28,-4 22,-4 20,0 35,20 46,61 3,10 4,17 4,22 0,10 -4,15 -13,15 -4,0 -10,-1 -18,-3 -8,-2 -14,-3 -19,-3 -35,0 -83,19 -142,56 -18,11 -27,17 -27,17 -3,0 -10,-3 -19,-9 -19,-13 -33,-29 -41,-48 -5,-13 2,-26 22,-38 26,-17 61,-44 105,-84 45,-39 74,-68 88,-85 -2,-37 -3,-57 -3,-59 1,-23 10,-39 26,-46 15,-6 41,-10 79,-12 102,-125 184,-247 245,-366 -20,11 -56,25 -108,41 -83,27 -141,47 -172,58 -45,16 -67,44 -67,84 0,8 0,17 1,27 1,15 -3,23 -13,23 -7,0 -12,-3 -15,-10 -22,-47 -35,-81 -39,-100 -4,-18 -6,-26 -6,-27 0,-15 7,-28 20,-40 25,-21 72,-37 141,-47 104,-16 193,-40 268,-74 9,-9 14,-14 15,-15 2,-3 4,-8 7,-17 2,-8 6,-12 12,-12 10,0 24,10 43,30 6,7 9,14 9,21 0,4 -7,18 -21,43 -31,54 -72,120 -123,197 -57,86 -102,147 -133,183 99,0 176,-3 232,-8 6,-58 18,-141 38,-248 10,-53 20,-105 30,-158 6,-45 36,-78 90,-98 8,-3 15,-5 21,-5 9,0 14,4 14,12 0,7 -4,17 -12,28z"/>
  <path id="1" fill="#FEFEFE" fill-rule="nonzero" d="M3791 264c5,4 8,8 8,13 0,8 -5,12 -14,12 -4,0 -8,-1 -13,-4 -19,-10 -33,-14 -43,-14 -26,0 -55,25 -86,76 -112,183 -192,420 -240,709 -1,8 -3,18 -6,32 10,-10 24,-26 42,-48 11,-13 19,-19 24,-19 11,0 11,6 2,19 -40,57 -66,116 -79,178 -5,15 -10,23 -17,23 -3,0 -8,-2 -13,-6 -21,-14 -33,-22 -36,-25 -8,-8 -12,-19 -12,-32 0,-7 1,-15 3,-24 48,-263 110,-487 185,-672 57,-140 108,-230 153,-271 12,-12 25,-17 37,-17 11,0 26,7 44,21 20,17 40,33 61,50z"/>
  <path id="2" fill="#FEFEFE" fill-rule="nonzero" d="M4289 1029c-27,40 -67,111 -121,212 -5,9 -8,14 -9,14 -4,2 -12,1 -26,-3 -29,-9 -43,-17 -43,-25 0,-5 2,-11 6,-20 31,-72 58,-149 80,-232 22,-82 33,-145 32,-189 0,-14 -5,-22 -15,-22 -7,0 -15,4 -25,12 -35,28 -81,84 -137,166 -67,99 -115,192 -142,278 -3,10 -6,15 -8,17 -2,1 -8,0 -18,-3 -14,-5 -28,-12 -40,-21 -6,-5 -10,-9 -10,-14 0,-1 3,-9 9,-24 54,-135 81,-267 81,-394 0,-13 -4,-19 -11,-19 -6,0 -12,4 -21,11 -44,37 -93,101 -147,192 -52,87 -91,168 -116,244 -7,19 -13,29 -20,29 -8,0 -25,-9 -51,-28 -7,-4 -10,-8 -10,-12 0,-4 5,-11 14,-21 17,-36 36,-98 58,-186 24,-101 35,-173 32,-219 -6,6 -17,16 -32,30 -15,14 -26,25 -33,32 -6,5 -10,8 -14,8 -6,0 -9,-4 -9,-12 0,-7 2,-12 7,-17 23,-24 46,-52 69,-85 8,-12 16,-17 22,-17 5,0 14,7 27,20 10,4 21,7 31,11 9,4 13,12 13,23 0,3 -1,7 -2,11 -10,80 -26,155 -47,224 73,-131 141,-225 204,-280 9,-8 17,-12 25,-12 9,0 22,6 40,17 17,7 28,14 33,20 6,7 9,19 9,35 0,84 -10,159 -29,225 81,-128 154,-222 221,-284 9,-8 18,-12 28,-12 12,0 28,8 46,25 32,5 48,25 46,59 -5,99 -26,196 -64,288 21,-24 37,-46 48,-63 5,-9 11,-13 18,-13 6,0 9,3 9,10 0,4 -2,9 -6,15z"/>
  <path id="3" fill="#FEFEFE" fill-rule="nonzero" d="M4786 813c-38,105 -64,194 -78,265 6,-6 14,-15 25,-26 10,-12 16,-19 19,-21 6,-7 12,-11 18,-11 6,0 9,3 9,9 0,4 -2,8 -5,13 -39,57 -65,115 -77,174 -4,17 -9,25 -17,25 -7,0 -20,-7 -39,-20 -11,-7 -18,-14 -19,-19 -2,-4 -2,-14 0,-27 17,-105 39,-192 65,-262 -36,58 -85,123 -147,193 -54,62 -93,101 -117,118 -18,12 -31,18 -40,18 -7,0 -19,-6 -34,-18 -22,-13 -33,-31 -33,-54 0,-5 0,-10 1,-16 7,-61 34,-132 80,-213 46,-81 99,-150 159,-205 19,-18 37,-27 52,-27 15,1 43,21 85,59 4,3 6,7 6,11 0,7 -4,10 -13,10 -3,0 -6,-1 -9,-2 -29,-12 -53,-12 -71,1 -39,29 -82,79 -129,151 -55,83 -87,157 -99,223 0,3 -1,6 -1,8 0,10 4,15 12,15 14,0 31,-10 50,-29 46,-45 96,-102 149,-170 54,-71 89,-124 104,-160 11,-26 18,-45 22,-56 6,-19 11,-28 17,-28 6,0 21,8 44,26 10,7 15,13 15,19 1,5 -1,14 -6,26z"/>
  <path id="4" fill="#FEFEFE" fill-rule="nonzero" d="M5509 813c-38,105 -64,194 -78,265 6,-6 14,-15 25,-26 10,-12 16,-19 19,-21 6,-7 12,-11 18,-11 6,0 9,3 9,9 0,4 -2,8 -5,13 -39,57 -65,115 -77,174 -4,17 -9,25 -17,25 -7,0 -20,-7 -39,-20 -11,-7 -18,-14 -19,-19 -2,-4 -2,-14 0,-27 17,-105 39,-192 65,-262 -36,58 -85,123 -147,193 -54,62 -93,101 -117,118 -18,12 -31,18 -40,18 -7,0 -19,-6 -34,-18 -22,-13 -33,-31 -33,-54 0,-5 0,-10 1,-16 7,-61 34,-132 80,-213 46,-81 99,-150 159,-205 19,-18 37,-27 52,-27 15,1 43,21 85,59 4,3 6,7 6,11 0,7 -4,10 -13,10 -3,0 -6,-1 -9,-2 -29,-12 -53,-12 -71,1 -39,29 -82,79 -129,151 -55,83 -87,157 -99,223 0,3 -1,6 -1,8 0,10 4,15 12,15 14,0 31,-10 50,-29 46,-45 96,-102 149,-170 54,-71 89,-124 104,-160 11,-26 18,-45 22,-56 6,-19 11,-28 17,-28 6,0 21,8 44,26 10,7 15,13 15,19 1,5 -1,14 -6,26z"/>
  <path id="5" fill="#FEFEFE" fill-rule="nonzero" d="M3507 1966c0,64 -9,116 -27,155 -8,16 -19,20 -35,11 -23,-13 -35,-23 -35,-32 0,-4 3,-8 8,-12 14,-40 21,-71 20,-93 -1,-19 -10,-28 -28,-28 -2,0 -5,-1 -9,-2 -4,-1 -7,-1 -10,-1 -14,0 -32,14 -53,41 -23,31 -45,73 -66,128 -17,45 -29,84 -35,116 -4,23 -7,44 -7,63 0,63 20,94 60,93 35,-1 86,-45 154,-133 7,-8 13,-12 18,-12 5,0 8,3 8,10 0,3 -1,7 -3,12 -22,54 -51,101 -86,142 -9,10 -24,15 -46,15 -13,0 -29,-3 -48,-8 -38,-3 -68,-15 -91,-37 -24,-23 -36,-54 -34,-92 2,-44 17,-105 46,-182 31,-84 64,-145 97,-184 16,-17 29,-26 40,-26 11,0 32,9 63,27 17,-6 34,-9 50,-9 33,0 49,12 49,35z"/>
  <path id="6" fill="#FEFEFE" fill-rule="nonzero" d="M3936 1956c0,54 -7,106 -22,155 -4,15 -11,22 -19,22 -6,0 -19,-8 -39,-25 -10,-8 -12,-20 -7,-35 12,-38 18,-68 18,-91 0,-8 -2,-12 -5,-12 -5,0 -13,7 -24,22 -86,112 -151,238 -193,377 -14,44 -25,66 -35,66 -4,0 -20,-7 -49,-22 -14,-7 -19,-21 -14,-41 33,-143 68,-264 105,-363 -31,32 -50,54 -58,66 -3,5 -8,7 -14,7 -7,0 -11,-3 -11,-9 0,-4 2,-8 5,-12 20,-24 47,-61 81,-111 10,-18 21,-27 31,-27 7,0 22,6 45,17 13,7 15,15 6,27 -9,12 -26,54 -51,127 -24,71 -41,126 -50,166 57,-125 121,-236 192,-332 14,-18 25,-27 33,-27 7,0 18,5 30,15 18,2 28,5 33,8 7,5 11,15 11,30z"/>
  <path id="7" fill="#FEFEFE" fill-rule="nonzero" d="M4340 2030c-1,37 -10,86 -27,146 -27,96 -65,170 -114,224 -26,28 -55,42 -87,42 -12,0 -28,-3 -48,-8 -39,-3 -70,-15 -95,-37 -26,-24 -39,-55 -37,-92 2,-44 17,-105 45,-183 31,-86 64,-147 98,-185 16,-18 29,-27 40,-27 14,0 37,14 68,43 9,-4 26,-12 53,-23 14,-5 24,-7 31,-7 16,0 34,15 54,45 13,19 19,39 18,62zm-72 18c3,-28 4,-45 4,-53 0,-17 -5,-26 -16,-26 -4,0 -10,1 -16,3l-96 39c-11,4 -18,7 -19,7 -3,0 -7,-4 -10,-12 -24,29 -46,72 -67,127 -16,43 -27,82 -33,117 -4,23 -7,44 -7,63 0,64 20,95 59,93 16,0 33,-7 51,-19 35,-23 67,-71 97,-141 29,-67 47,-133 53,-198z"/>
  <path id="8" fill="#FEFEFE" fill-rule="nonzero" d="M4721 1966c0,64 -9,116 -27,155 -8,16 -19,20 -35,11 -23,-13 -35,-23 -35,-32 0,-4 3,-8 8,-12 14,-40 21,-71 20,-93 -1,-19 -10,-28 -28,-28 -2,0 -5,-1 -9,-2 -4,-1 -7,-1 -10,-1 -14,0 -32,14 -53,41 -23,31 -45,73 -66,128 -17,45 -29,84 -35,116 -4,23 -7,44 -7,63 0,63 20,94 60,93 35,-1 86,-45 154,-133 7,-8 13,-12 18,-12 5,0 8,3 8,10 0,3 -1,7 -3,12 -22,54 -51,101 -86,142 -9,10 -24,15 -46,15 -13,0 -29,-3 -48,-8 -38,-3 -68,-15 -91,-37 -24,-23 -36,-54 -34,-92 2,-44 17,-105 46,-182 31,-84 64,-145 97,-184 16,-17 29,-26 40,-26 11,0 32,9 63,27 17,-6 34,-9 50,-9 33,0 49,12 49,35z"/>
  <path id="9" fill="#FEFEFE" fill-rule="nonzero" d="M5253 1461c5,4 8,9 8,14 0,7 -5,11 -14,11 -4,0 -9,-1 -13,-4 -19,-10 -33,-14 -43,-14 -25,0 -54,25 -84,76 -109,178 -190,410 -243,698 67,-130 145,-233 231,-311 19,-17 32,-25 41,-25 3,0 13,6 31,17 22,9 34,15 37,17 11,10 16,26 16,50 0,7 0,14 -1,22 -7,74 -28,163 -63,268 13,-17 33,-43 61,-76 7,-7 12,-11 17,-11 4,0 7,3 7,8 0,6 -3,13 -8,21 -24,35 -56,86 -96,153 -3,7 -11,24 -24,52 -6,13 -13,20 -22,20 -11,0 -26,-7 -47,-22 -8,-6 -10,-15 -4,-27 71,-179 109,-312 113,-401 1,-25 -2,-38 -11,-38 -5,0 -17,7 -34,21 -32,26 -71,71 -117,137 -61,86 -109,174 -142,264 -9,26 -18,39 -25,39 -7,0 -21,-8 -42,-25 -10,-9 -14,-23 -11,-43 48,-262 110,-486 188,-672 57,-138 109,-229 155,-271 12,-11 23,-16 34,-16 12,0 26,7 44,20 21,17 41,34 62,51z"/>
  <path id="10" fill="#FEFEFE" fill-rule="nonzero" d="M5611 2246c-101,129 -171,193 -213,193 -19,0 -44,-14 -74,-40 -31,-15 -47,-34 -47,-58 0,-5 0,-9 1,-14 7,-57 23,-120 46,-188 -15,-8 -23,-15 -23,-22 0,-6 4,-9 13,-9 7,0 14,2 21,6 37,-82 70,-141 99,-176 19,-23 36,-35 51,-35 7,0 24,6 52,18 -2,-12 1,-20 11,-22 0,0 10,0 29,0 18,0 27,3 27,9 0,1 -1,5 -2,11 -1,6 -2,11 -2,16 0,15 0,33 1,55 0,22 1,37 1,44 0,51 -14,87 -42,107 -26,19 -55,28 -87,28 -17,0 -45,-5 -84,-14 -7,13 -15,38 -23,75 -12,47 -17,89 -16,125 0,21 7,32 21,32 5,0 11,-1 19,-4 48,-17 115,-68 200,-155 6,-5 11,-8 16,-8 8,0 12,4 12,11 0,4 -2,9 -6,14zm-73 -274c0,-16 -4,-24 -11,-24 -4,0 -11,3 -20,10 -41,33 -76,90 -107,172 8,1 23,3 43,4 33,1 58,-6 75,-23 12,-12 19,-33 20,-61 -1,21 -1,-5 -1,-77z"/>
  <path id="11" fill="#FEFEFE" fill-rule="nonzero" d="M6010 1631c12,6 17,13 17,21 0,5 -4,8 -12,8 -1,0 -4,0 -8,-1 -4,0 -6,-1 -8,-1 -16,0 -35,17 -57,51 -20,31 -47,97 -82,200 -3,9 -4,15 -4,16 1,3 7,4 16,5 24,2 57,1 98,-2 14,-1 21,5 21,18 0,9 -5,15 -16,17 -9,1 -54,5 -137,11 -50,145 -80,268 -90,369 0,5 -1,10 -1,14 0,14 4,21 11,21 11,0 45,-27 101,-81 7,-7 13,-10 19,-10 5,0 8,2 10,7 1,5 -1,11 -6,17 -33,44 -66,82 -98,113 -14,13 -25,19 -34,19 -9,0 -23,-7 -42,-22 -24,-6 -35,-19 -35,-37 0,-3 0,-6 1,-10 15,-107 45,-238 90,-393 -22,-3 -41,-6 -59,-9 -8,-1 -12,-6 -12,-15 0,-10 4,-15 12,-18 8,-2 24,-7 46,-14 14,-4 27,-11 40,-19 44,-137 79,-226 104,-266 14,-23 30,-35 46,-35 16,0 39,8 69,25z"/>
  <path fill="#FEFEFE" d="M1847 526c275,-273 402,-445 380,-516 -4,-2 -8,-4 -12,-5 -53,-17 -138,22 -257,118 -90,72 -80,94 30,65 124,-37 52,52 -215,267l25 23c17,14 34,31 49,48z"/>
  <path fill="#FEFEFE" d="M440 2094l-55 -44 -29 -29 -14 14 -333 340c-12,26 -9,50 11,71 24,20 49,22 76,6l330 -343 14 -15c0,0 0,0 -1,0z"/>
  <path fill="#FEFEFE" d="M2419 1746c468,50 724,155 239,370 -158,70 -791,282 -470,495 215,142 1307,55 1628,48 817,-19 1525,-70 2347,-62 22,-3 37,-18 32,-33 -5,-15 -26,-25 -48,-22 -731,-13 -1301,34 -2023,54 -313,9 -1658,86 -1861,-15 -351,-175 537,-439 661,-537 255,-202 -53,-303 -517,-352 2,9 5,18 7,27 2,9 4,18 5,26z"/>
  <polygon fill="#FEFEFE" points="2202,2269 2203,2269 2203,2268 "/>
  <polygon fill="#FEFEFE" points="166,707 164,707 165,709 "/>
  <path fill="#FEFEFE" d="M1970 1734c82,-100 141,-207 195,-331 23,13 42,29 62,45l-26 60c-78,174 -184,318 -311,427 -74,63 -144,105 -223,143 -5,3 -11,5 -16,8l-34 14 -43 17c-4,2 -8,3 -13,5l-26 9c-9,2 -33,10 -40,11 -3,-3 -9,-11 -11,-15 -3,-4 -6,-9 -10,-15 -7,-11 -15,-23 -18,-31 3,-2 3,-1 7,-3l13 -4c16,-5 43,-14 58,-20 51,-21 74,-31 124,-58 32,-17 63,-36 95,-59 9,-6 18,-13 26,-19 6,-5 13,-10 20,-15 8,-6 15,-12 22,-18 4,-4 6,-4 11,-9 4,-4 9,-8 14,-12 28,-25 58,-54 82,-82 14,-16 28,-32 41,-48zm24 130c112,-122 184,-248 249,-401 19,15 41,42 55,60l-25 58c-39,87 -89,174 -143,248 -65,87 -129,153 -214,218 -53,41 -110,74 -169,103 -4,2 -9,5 -13,6 -3,1 -4,2 -6,3l-32 14 -13 5c-4,2 -8,3 -13,5l-73 25c-2,1 -4,2 -6,2 -3,1 -24,7 -26,8 -12,-7 -36,-35 -50,-50 -2,-3 -4,-5 -6,-7l37 -12 4 -1c4,-2 8,-2 13,-4 5,-2 9,-3 14,-5l46 -17 94 -44c28,-15 47,-26 73,-42l24 -16c62,-41 128,-99 180,-155zm154 -25c74,-102 118,-187 165,-296 5,6 21,32 25,39l21 41 -12 28c-39,87 -86,170 -139,243 -52,72 -99,122 -163,180 -77,69 -192,140 -287,176l-44 17c-8,3 -30,10 -39,13 -5,2 -8,2 -12,4 -12,-4 -71,-42 -78,-51l26 -8c3,-1 4,-2 7,-2l33 -11c106,-36 218,-99 306,-171 23,-19 45,-38 66,-59 45,-44 86,-91 124,-142zm28 140c33,-5 90,-16 120,-25 4,4 9,13 11,18l21 37 5 9c2,3 4,6 4,9l-63 16c-10,2 -21,5 -32,7l-16 3c-23,5 -125,18 -148,16 6,-7 17,-17 24,-24l46 -49c5,-6 13,-17 18,-18 3,-1 5,-1 8,-1zm-86 112c79,-4 135,-13 209,-31l38 -10c4,-1 8,-3 12,-3 2,4 4,7 5,11 -14,29 -32,59 -51,84 -3,4 -2,3 -6,4l-6 1c-91,22 -187,30 -281,27 -11,0 -47,-2 -56,-3 3,-3 8,-5 11,-8 28,-20 47,-33 75,-57 15,-12 13,-13 23,-13l28 -1zm29 102c40,-3 68,-6 107,-12 18,-3 35,-7 52,-10 -12,15 -30,31 -43,44 -9,9 -70,57 -83,58 -38,4 -95,4 -133,3 -29,-1 -112,-8 -139,-13 -5,-1 -7,-6 -10,-10 -4,-5 -14,-18 -17,-23 2,-2 9,-5 12,-7l34 -19c33,-20 18,-15 51,-13 34,2 81,5 113,4 19,-1 37,-1 55,-2zm137 -332c6,-11 15,-23 22,-35 7,-11 14,-24 21,-35 7,8 13,18 19,26l18 26c12,17 23,36 34,54l20 35c5,9 5,6 3,15 -7,29 -15,56 -27,85 -2,-3 -4,-8 -6,-11l-6 -11c-29,-54 -48,-80 -81,-129 -4,-6 -11,-15 -16,-20zm-40 57c4,-6 25,-37 28,-39 8,9 23,31 31,43l9 13c1,2 0,0 1,2l-24 6c-8,2 -16,4 -24,5 -10,2 -41,8 -49,9 9,-13 20,-25 29,-38zm197 -224c-47,-175 -182,-314 -354,-367 -50,-15 -102,-24 -157,-24 -7,0 -14,0 -21,0 -15,1 -30,2 -45,4 -54,7 -105,21 -152,43 -13,6 -25,12 -38,19 -24,13 -47,29 -69,46 -16,13 -32,26 -46,40 -68,67 -118,152 -142,248 -4,14 -6,28 -9,43 -5,28 -7,57 -7,86 0,26 2,52 6,77 2,14 5,28 8,42 13,58 36,112 66,161 9,14 18,27 27,40 6,8 12,15 18,22 97,114 242,187 404,187 292,0 529,-237 529,-529 0,-29 -2,-58 -7,-85 -3,-18 -7,-36 -11,-53zm-308 -322l41 21 -14 32 -13 29c-11,-6 -24,-15 -35,-22 -2,-2 -5,-3 -8,-5 -46,-27 -116,-63 -167,-82 -3,-1 -7,-2 -11,-4 -11,-4 -24,-8 -33,-13l2 0 25 -1 1 0c9,0 18,0 28,1 45,2 103,12 150,29 12,4 24,9 34,14zm-33 77c18,11 34,21 37,25 -9,23 -26,51 -38,73 -5,-3 -14,-9 -20,-13 -1,0 -1,-1 -2,-1 -24,-15 -43,-26 -68,-40 -8,-4 -16,-9 -24,-13 -18,-9 -37,-18 -56,-27 -57,-25 -119,-47 -174,-62l-27 -7 -21 -6c4,-2 7,-3 11,-5 1,-1 3,-1 4,-2 2,-1 5,-2 7,-3 10,-5 14,-4 22,-9l23 -8 6 -2 17 -5c10,-3 39,-11 49,-8 12,4 23,8 35,12 19,7 37,14 56,21 31,12 61,26 91,41 10,5 43,23 70,39zm-103 61c28,15 47,28 76,45 5,3 10,6 16,10 -12,23 -29,48 -43,70 -2,0 -44,-27 -50,-31 -3,-2 -6,-3 -9,-5 -63,-37 -131,-68 -200,-92 -18,-6 -36,-12 -54,-18 -28,-8 -55,-16 -83,-23 -15,-4 -32,-7 -48,-10 -3,-1 -5,-1 -8,-2 2,-2 5,-5 9,-8 12,-10 30,-23 37,-28 8,-6 16,-10 24,-16l6 -4c2,-1 4,-3 6,-4 3,-1 7,0 11,1 1,0 3,1 4,1 16,4 33,8 50,12 68,18 137,43 200,73 8,4 16,8 24,12 12,6 23,11 32,17zm-10 113c-1,2 -7,12 -13,22 -6,9 -12,19 -14,22 -5,9 -11,17 -16,26 -23,39 -44,80 -62,120 -12,27 -6,23 -29,41 -7,6 -14,12 -22,18 -4,3 -8,7 -12,10 -8,6 -41,31 -59,43 -4,3 -8,5 -10,6 0,-2 1,-3 1,-5 3,-13 9,-29 13,-40 0,-1 1,-2 1,-4 19,-57 45,-115 75,-171 8,-16 17,-31 26,-46 16,-28 34,-55 52,-80 14,5 53,29 68,37zm-112 -10c-9,14 -18,29 -27,43 -11,19 -23,39 -33,59 -4,7 -7,13 -10,20 -22,45 -42,91 -58,138 -1,4 -2,7 -4,11 -3,11 -7,24 -11,33l-7 -30 -13 -56c-3,-15 -6,-29 -8,-44 -4,-27 -5,-20 10,-50 2,-3 3,-6 5,-9 20,-40 39,-76 62,-113l2 -9c1,1 2,2 2,3 5,-7 9,-14 14,-22l14 -21 16 -23 72 32c-5,10 -18,27 -25,38zm-200 120c4,35 8,64 17,109 1,5 6,26 11,49 3,14 7,29 10,41 3,9 5,16 6,19 -4,5 -46,27 -55,32 -5,2 -14,9 -19,9l-4 -16c-4,-10 -7,-22 -11,-35 -3,-13 -7,-27 -10,-41 -7,-34 -14,-68 -17,-93 -4,-24 -6,-45 -8,-66 -1,-14 -2,-28 -3,-41 -1,-27 -2,-55 -3,-87 0,-12 1,-62 3,-98 1,-17 2,-31 3,-38 0,0 1,0 1,0 1,0 2,0 4,0 15,3 58,13 68,16 -1,20 -2,40 -2,60 -1,35 0,84 2,119 1,7 1,14 2,21 1,15 3,29 4,41zm-65 209c2,7 4,14 6,21l11 38c-3,3 -68,31 -76,32l-6 -17c-6,-21 -13,-44 -19,-68 -3,-14 -6,-28 -9,-41 -3,-16 -6,-32 -8,-47 -6,-41 -10,-78 -13,-115 -1,-14 -2,-28 -2,-42 -1,-32 -1,-65 0,-101l1 -20c0,-7 -1,-13 4,-19 16,-26 36,-51 57,-74 2,-2 5,-5 7,-7 5,-5 10,-12 14,-12 1,3 0,14 -1,17l-1 18c-4,51 -5,103 -3,154 0,6 0,12 1,19 0,7 1,14 1,21 1,14 2,28 3,41 5,54 13,107 25,160 3,14 6,27 10,41zm-82 87c2,4 3,9 4,13 -8,1 -49,17 -59,19 -5,-7 -12,-28 -16,-36 -10,-23 -18,-47 -23,-73 -3,-14 -6,-28 -8,-42 -8,-54 -7,-111 2,-163 0,-3 1,-5 1,-8 2,-9 5,-22 8,-35 9,-34 23,-76 36,-94 1,8 0,20 0,28 0,23 0,44 1,66 0,14 1,28 2,42 2,28 4,57 9,87 4,26 8,51 12,75 2,10 4,21 7,31 1,2 1,6 3,10 6,23 18,69 22,80zm848 -332c12,14 37,51 48,68 4,6 4,5 5,13 4,33 6,99 -2,130 -4,-5 -7,-12 -11,-18 -21,-35 -32,-52 -55,-85l-24 -33 38 -75zm-685 -199l20 6 -21 31c-1,-3 -1,-6 -1,-10l1 -27zm107 34c4,1 7,3 10,4 -2,3 -3,5 -5,8 -8,12 -17,24 -25,36 -17,26 -33,53 -48,80 -5,9 -10,18 -14,27 -7,13 -13,26 -19,39 -1,-3 -3,-18 -4,-36 -2,-28 -3,-63 -4,-72l0 -28c0,-16 -1,-14 8,-28 12,-18 23,-36 36,-52 4,1 8,3 12,4 18,6 36,12 54,18zm208 102c5,3 25,15 27,18 -3,7 -11,16 -18,26 -4,6 -8,11 -11,15 -13,18 -78,97 -91,105 13,-32 37,-74 60,-111 12,-19 23,-37 33,-52zm-145 605c3,3 7,9 10,14l9 13c11,16 39,49 53,65 3,3 9,9 11,12 -16,4 -76,-2 -94,-5 -15,-2 -11,-1 -20,-12l-42 -53c3,-2 15,-7 19,-8 7,-2 50,-22 54,-25zm-119 50c8,-3 17,-5 25,-9 4,3 15,20 19,25l18 24c-23,-4 -66,-20 -88,-31l25 -9zm644 -613l11 -25c5,9 8,23 12,34 2,5 3,11 5,17 1,4 4,13 4,17 -7,-7 -22,-31 -33,-43zm-301 622l52 -1c-2,1 -4,2 -7,3l-7 3c-17,8 -52,19 -70,24 -10,2 -19,4 -29,7 -9,2 -20,4 -30,5 -25,3 -21,4 -29,-4 -7,-8 -38,-42 -41,-48 46,7 114,11 161,11z"/>
  <path fill="#FEFEFE" d="M1722 467c14,9 45,40 59,53 135,125 241,314 284,499 15,63 36,212 25,272 -8,-14 -15,-36 -23,-52 -56,-123 -108,-230 -181,-346 -40,-63 -79,-122 -122,-178 -19,-25 -99,-126 -119,-144 -6,-6 -13,-14 -17,-21 13,-9 75,-71 93,-83zm96 397c100,155 165,281 239,458l2 5c23,7 45,16 67,26 3,-34 5,-69 5,-104 0,-297 -122,-565 -319,-757 -5,-4 -9,-8 -14,-12l-25 -23c0,0 0,0 0,0 -187,-165 -432,-265 -701,-265 -585,0 -1058,474 -1058,1058 0,307 131,583 339,777 10,9 20,18 30,27 0,0 0,0 0,0 0,0 0,0 1,0l54 43 1 0c177,132 396,210 633,210 162,0 316,-37 454,-102 -10,-10 -19,-20 -28,-30 -17,7 -33,14 -50,21 -106,42 -259,76 -373,71l-92 -5 -1 -71 1 -63c26,2 56,8 82,11 105,14 275,23 390,14 8,-1 16,-1 24,-2 -10,-13 -19,-26 -27,-40 -73,3 -146,4 -219,0 -38,-2 -226,-16 -248,-28 -2,-49 6,-115 10,-164 13,0 36,5 51,8 55,8 100,12 156,17 58,5 120,7 184,6 -3,-14 -6,-28 -8,-42 -32,0 -63,0 -94,-2 -122,-5 -170,-15 -285,-30 4,-53 13,-111 22,-163 4,-1 102,14 117,16 79,10 160,14 240,15 2,-14 5,-29 9,-43l-53 0c1,-23 11,-63 15,-89 14,-91 24,-189 28,-281 4,-100 3,-201 -6,-301 -3,-29 -9,-66 -10,-92l108 140c17,24 34,49 51,74 30,46 25,33 23,99 -3,69 -6,135 -13,201 15,-14 30,-28 46,-40 4,-51 7,-102 8,-153 7,6 35,59 61,108 12,-7 25,-13 38,-19 -2,-3 -4,-7 -5,-10 -67,-122 -101,-180 -180,-293 -12,-18 -118,-158 -139,-174 3,-12 61,-87 75,-105 6,-8 19,-28 27,-31l21 25c63,66 158,201 207,277 62,96 103,175 148,268 15,-2 30,-3 45,-4 -9,-20 -19,-39 -28,-59 -85,-171 -193,-336 -314,-481l-52 -60c3,-7 99,-113 112,-121l25 26c65,74 142,173 194,255zm-500 68c6,25 9,67 12,94 21,217 6,461 -36,675 -29,1 -121,-9 -155,-13 -1,-8 12,-86 14,-102 15,-106 23,-223 23,-331 0,-59 -7,-46 19,-98 13,-26 25,-53 39,-79 12,-22 70,-129 85,-147zm-140 164c-5,10 -8,13 -14,25 -34,76 -72,168 -99,250 -97,295 -125,571 -122,886 -53,-6 -100,-19 -150,-31l-2 -132c0,-382 77,-732 219,-1034 89,-188 190,-327 314,-471l116 -119c7,-6 12,-13 19,-19l41 -38c15,-12 52,-46 63,-53 8,3 25,14 33,18 26,16 69,43 90,61 -3,5 -5,5 -11,10l-20 18c-26,23 -68,61 -89,84 -76,80 -110,116 -181,207 -44,57 -86,118 -126,185 -20,33 -37,65 -57,100 -9,17 -18,34 -26,51zm-299 180c-105,314 -135,603 -127,937 -47,-12 -110,-43 -151,-64l-2 -126c0,-191 20,-391 60,-570 48,-212 111,-386 214,-574 64,-118 141,-226 225,-326 6,-7 12,-15 19,-22 4,-4 5,-6 9,-11l47 -51 18 -20c6,-7 13,-12 20,-19l112 -106c4,-3 6,-6 10,-9 6,-4 39,-32 41,-36 32,5 118,44 150,58l-64 57c-7,7 -13,11 -20,18 -7,8 -14,13 -21,19l-70 69 -137 158c-39,50 -65,86 -99,138 -11,16 -21,32 -31,48 -81,126 -154,285 -203,431zm-261 172c-53,247 -62,438 -59,676 -14,-7 -64,-41 -78,-51l-73 -57 0 -62c0,-190 18,-382 55,-558 37,-174 82,-304 151,-462 84,-190 237,-414 382,-557l66 -67c12,-12 47,-42 61,-55 8,-8 13,-10 19,-18 26,-3 164,19 185,28l-42 37c-4,3 -7,7 -11,10l-51 47c-164,152 -319,361 -421,564 -27,53 -51,106 -73,162 -46,116 -84,236 -111,362zm-252 471l0 55c-16,-12 -34,-35 -50,-51 -8,-7 -15,-18 -23,-28 -6,-7 -18,-20 -22,-28 18,7 66,38 95,52zm85 -653c-6,31 -16,63 -23,94 -3,14 -16,87 -20,94 -22,-10 -68,-38 -91,-52l-26 -16c-3,-3 0,0 -3,-3l40 -30c13,-10 26,-20 39,-29 17,-12 68,-49 83,-56zm-75 439l-9 167c-34,-15 -110,-63 -144,-84 -12,-8 -12,-6 -20,-19 -34,-57 -91,-175 -103,-239 11,6 23,16 34,23 66,46 101,68 170,110l71 40zm14 -127c-3,26 -5,56 -10,81 -19,-9 -39,-21 -57,-32 -18,-11 -36,-22 -55,-33 -36,-22 -72,-47 -105,-70l-65 -48c-16,-12 -14,-7 -18,-26 -12,-58 -18,-116 -19,-177 7,4 14,11 21,15 7,5 13,10 20,15 98,75 152,106 254,169 13,8 32,19 45,25 -2,26 -8,54 -12,81zm654 -1307c-13,11 -28,23 -38,38 -11,-2 -44,-23 -56,-30l-53 -28c45,-11 137,-19 185,-16l-38 36zm-270 306c-45,63 -21,43 -83,66 -63,23 -152,57 -211,86 -34,17 -68,32 -100,49 -70,38 -120,67 -186,110 -30,20 -58,41 -87,60 9,-37 29,-82 44,-116 10,-24 81,-161 104,-175 67,-38 170,-85 242,-114 54,-22 211,-78 266,-90 9,-2 17,5 25,10 11,6 41,22 50,29 -3,6 -12,16 -16,22l-47 63zm-608 129l0 2 -1 -2 2 0zm242 -170l-94 43c4,-4 6,-8 10,-12 5,-5 6,-6 10,-11 25,-29 80,-78 109,-101 16,-13 31,-23 48,-36 15,-11 34,-23 51,-33 43,-27 35,-24 56,-16 20,8 105,45 114,54 -90,24 -218,73 -305,111zm537 -166c-11,10 -74,80 -79,90 -9,-3 -21,-11 -30,-16l-28 -16c-33,-19 -112,-58 -150,-75 -7,-3 -23,-9 -29,-13 26,-19 140,-58 176,-67 29,-8 22,-7 46,5l120 63c-3,6 -22,26 -27,31zm-418 663l-45 127c-5,16 -11,42 -18,47 -5,3 -8,5 -13,8 -56,35 -152,102 -200,144 -10,-4 -26,-17 -35,-23l-70 -50 -17 -13c-6,-4 -12,-7 -15,-14l101 -81c17,-13 34,-26 53,-39l27 -19c38,-27 214,-136 257,-151 -5,18 -18,44 -25,63zm-367 135l-61 50c-7,6 -12,11 -20,16 -7,-5 -14,-10 -19,-15 2,-64 11,-133 25,-195 2,-10 1,-7 8,-12l10 -8c149,-115 318,-208 492,-280 20,-8 88,-36 106,-40 -4,8 -9,16 -14,23 -34,60 -58,99 -91,166 -17,34 -13,34 -31,43 -16,8 -33,16 -50,24 -141,72 -235,135 -356,228zm973 140c5,104 -22,270 -37,375 -12,-1 -57,-7 -65,-11 1,-24 14,-72 20,-97 10,-43 63,-240 81,-267z"/>
 </g>
</svg>
